<svg xmlns="http://www.w3.org/2000/svg" viewBox="-32 0 512 512"><path d="m407.867188 76.875h-35.296876v-23.128906h9.316407c7.128906 0 12.933593-5.800782 12.933593-12.933594v-27.878906c0-7.132813-5.800781-12.933594-12.933593-12.933594h-315.59375c-7.132813 0-12.933594 5.800781-12.933594 12.933594v27.878906c0 7.132812 5.800781 12.933594 12.933594 12.933594h9.3125v23.128906h-35.296875c-22.226563 0-40.308594 18.082031-40.308594 40.308594v8.316406c0 4.144531 3.355469 7.5 7.5 7.5s7.5-3.355469 7.5-7.5v-8.316406c0-13.957032 11.355469-25.308594 25.308594-25.308594h35.082031v22.960938h-19.515625c-9.355469 0-16.964844 7.609374-16.964844 16.964843v57.148438c0 7.03125 4.226563 13.230469 10.773438 15.796875l34.945312 13.695312c4.160156 10.996094 9.664063 21.339844 16.3125 30.824219l-69.792968-27.097656c-9.808594-3.808594-16.148438-13.070313-16.148438-23.59375v-29.074219c0-4.140625-3.355469-7.5-7.5-7.5-4.140625 0-7.5 3.359375-7.5 7.5v29.074219c0 16.761719 10.097656 31.511719 25.722656 37.574219l97.1875 37.734374c17.292969 15.339844 38.394532 26.46875 61.683594 31.792969-3.816406 19.265625-10.085938 43.859375-16.257812 54.003907h-45.773438c-9.890625 0-17.9375 8.046874-17.9375 17.9375v116.441406c0 9.894531 8.046875 17.941406 17.9375 17.941406h26.527344c4.144531 0 7.5-3.359375 7.5-7.5s-3.355469-7.5-7.5-7.5h-26.527344c-1.621094 0-2.9375-1.320312-2.9375-2.941406v-116.441406c0-1.617188 1.316406-2.9375 2.9375-2.9375h203.054688c1.621093 0 2.9375 1.320312 2.9375 2.9375v116.441406c0 1.621094-1.316407 2.941406-2.9375 2.941406h-129.527344c-4.144532 0-7.5 3.359375-7.5 7.5s3.355468 7.5 7.5 7.5h129.527344c9.890624 0 17.9375-8.046875 17.9375-17.941406v-116.441406c0-9.890626-8.046876-17.9375-17.9375-17.9375h-45.773438c-6.164062-10.140626-12.4375-34.738282-16.253906-54.003907 23.285156-5.324219 44.386718-16.453125 61.679687-31.792969l97.1875-37.734374c15.625-6.0625 25.722657-20.8125 25.722657-37.574219v-81.390625c0-22.226563-18.085938-40.308594-40.3125-40.308594zm-352.710938 113.90625c-.757812-.296875-1.246094-1.015625-1.246094-1.832031v-57.148438c0-1.085937.878906-1.964843 1.964844-1.964843h19.730469v39.125c0 10.726562 1.214843 21.167968 3.503906 31.207031zm13.203125-152.035156v-23.746094h311.460937v23.746094zm323.945313 91.089844c1.082031 0 1.964843.878906 1.964843 1.964843v57.148438c0 .816406-.488281 1.535156-1.246093 1.832031l-23.957032 9.386719c2.289063-10.039063 3.503906-20.484375 3.503906-31.207031v-39.128907h19.734376zm-207.300782 229.84375c6.660156-15.386719 11.707032-37.910157 14.367188-51.445313 5.402344.636719 10.898437.960937 16.472656.960937h16.492188c5.578124 0 11.082031-.328124 16.492187-.964843 1.078125 5.4375 2.554687 12.40625 4.363281 19.804687 3.269532 13.371094 6.554688 23.863282 9.925782 31.644532zm47.332032-65.484376h-16.492188c-69.058594 0-125.238281-56.179687-125.238281-125.234374v-115.214844h266.964843v115.214844c0 69.054687-56.179687 125.234374-125.234374 125.234374zm200.84375-95.621093c0 10.523437-6.339844 19.785156-16.148438 23.59375l-69.796875 27.097656c6.652344-9.488281 12.152344-19.828125 16.316406-30.824219l34.945313-13.695312c6.542968-2.566406 10.773437-8.765625 10.773437-15.796875v-57.148438c0-9.355469-7.609375-16.964843-16.964843-16.964843h-19.519532v-22.960938h35.082032c13.957031 0 25.3125 11.351562 25.3125 25.308594zm0 0" fill="#FFDA44"/><path d="m276.761719 130.644531-27.671875-4.023437-12.375-25.074219c-2.390625-4.839844-7.230469-7.847656-12.625-7.847656-5.398438 0-10.234375 3.007812-12.625 7.847656l-12.375 25.074219-27.671875 4.023437c-5.339844.773438-9.695313 4.445313-11.363281 9.578125-1.667969 5.132813-.304688 10.664063 3.5625 14.433594l20.023437 19.515625-4.726563 27.5625c-.914062 5.320313 1.230469 10.59375 5.597657 13.769531 4.367187 3.171875 10.050781 3.582032 14.828125 1.070313l24.75-13.011719 24.75 13.011719c2.078125 1.09375 4.328125 1.632812 6.5625 1.632812 2.90625 0 5.792968-.910156 8.261718-2.703125 4.367188-3.171875 6.515626-8.449218 5.601563-13.769531l-4.726563-27.558594 20.023438-19.519531c3.863281-3.765625 5.226562-9.296875 3.5625-14.429688-1.667969-5.136718-6.023438-8.808593-11.363281-9.582031zm-23.042969 33.125c-3.316406 3.234375-4.828125 7.894531-4.046875 12.460938l4.492187 26.195312-23.523437-12.367187c-2.050781-1.078125-4.300781-1.617188-6.550781-1.617188s-4.5.539063-6.550782 1.617188l-23.527343 12.367187 4.492187-26.195312c.785156-4.566407-.726562-9.226563-4.046875-12.460938l-19.03125-18.550781 26.300781-3.824219c4.585938-.664062 8.550782-3.542969 10.601563-7.699219l11.761719-23.832031 11.761718 23.832031c2.050782 4.15625 6.015626 7.035157 10.601563 7.703126l26.304687 3.820312zm0 0" fill="#FFDA44"/></svg>