<svg 
 xmlns="http://www.w3.org/2000/svg"
 xmlns:xlink="http://www.w3.org/1999/xlink"
 width="58px" height="44px">
<path fill-rule="evenodd"  fill="rgb(255, 255, 255)"
 d="M57.224,36.112 C57.224,37.349 56.876,38.496 56.318,39.505 L38.495,19.564 L56.125,4.139 C56.811,5.228 57.224,6.506 57.224,7.888 L57.224,36.112 ZM29.000,23.185 L53.531,1.721 C52.525,1.169 51.391,0.831 50.168,0.831 L7.832,0.831 C6.607,0.831 5.474,1.169 4.471,1.721 L29.000,23.185 ZM35.839,21.886 L30.161,26.858 C29.829,27.147 29.415,27.292 29.000,27.292 C28.585,27.292 28.171,27.147 27.839,26.858 L22.159,21.886 L4.111,42.083 C5.193,42.761 6.461,43.168 7.832,43.168 L50.168,43.168 C51.539,43.168 52.807,42.761 53.889,42.083 L35.839,21.886 ZM1.875,4.139 C1.189,5.228 0.776,6.506 0.776,7.888 L0.776,36.112 C0.776,37.349 1.122,38.496 1.682,39.505 L19.503,19.561 L1.875,4.139 Z"/>
</svg>