<svg 
 xmlns="http://www.w3.org/2000/svg"
 xmlns:xlink="http://www.w3.org/1999/xlink"
 width="55px" height="53px">
<path fill-rule="evenodd"  fill="rgb(255, 255, 255)"
 d="M53.759,52.374 C53.322,52.799 52.749,53.011 52.176,53.011 C51.603,53.011 51.030,52.799 50.593,52.374 L41.065,43.113 C36.793,46.576 31.300,48.664 25.315,48.664 C11.737,48.664 0.691,37.928 0.691,24.732 C0.691,11.536 11.737,0.801 25.315,0.801 C38.892,0.801 49.938,11.536 49.938,24.732 C49.938,30.547 47.792,35.884 44.230,40.036 L53.759,49.297 C54.633,50.147 54.633,51.524 53.759,52.374 ZM45.461,24.732 C45.461,13.936 36.423,5.152 25.315,5.152 C14.206,5.152 5.168,13.936 5.168,24.732 C5.168,35.529 14.206,44.313 25.315,44.313 C36.423,44.313 45.461,35.529 45.461,24.732 ZM25.315,24.732 C31.084,24.732 35.761,29.277 35.761,34.885 L14.868,34.885 C14.868,29.277 19.545,24.732 25.315,24.732 ZM25.314,24.732 C21.606,24.732 18.599,21.810 18.599,18.205 C18.599,14.601 21.606,11.678 25.314,11.678 C29.023,11.678 32.030,14.601 32.030,18.205 C32.030,21.810 29.023,24.732 25.314,24.732 Z"/>
</svg>