<svg 
 xmlns="http://www.w3.org/2000/svg"
 xmlns:xlink="http://www.w3.org/1999/xlink"
 width="58px" height="56px">
<path fill-rule="evenodd"  fill="rgb(255, 255, 255)"
 d="M55.834,55.826 L38.555,55.826 C37.804,55.826 37.195,55.216 37.195,54.465 L37.195,46.018 C37.195,43.592 38.740,41.446 41.042,40.679 C41.052,40.676 41.063,40.673 41.073,40.669 L42.597,40.202 C43.056,40.061 43.554,40.172 43.909,40.493 L47.195,43.465 L50.481,40.493 C50.836,40.172 51.334,40.061 51.792,40.202 L53.316,40.669 C53.327,40.673 53.337,40.676 53.348,40.679 C55.649,41.446 57.195,43.592 57.194,46.018 L57.194,54.465 C57.194,55.216 56.585,55.826 55.834,55.826 ZM51.416,23.224 C51.139,23.539 50.740,23.720 50.321,23.720 C49.901,23.720 49.502,23.539 49.226,23.224 L47.233,20.956 C46.702,20.351 46.761,19.430 47.366,18.898 C47.757,18.553 48.282,18.459 48.747,18.598 C48.453,16.154 47.477,13.879 45.904,12.089 C45.373,11.484 45.432,10.563 46.037,10.031 C46.642,9.500 47.563,9.559 48.094,10.164 C50.150,12.504 51.390,15.492 51.687,18.677 C52.197,18.435 52.824,18.501 53.276,18.898 C53.880,19.430 53.940,20.351 53.408,20.956 L51.416,23.224 ZM52.875,33.582 C52.875,36.714 50.327,39.263 47.195,39.263 C44.063,39.263 41.514,36.714 41.514,33.582 C41.514,30.449 44.063,27.900 47.195,27.900 C50.327,27.900 52.875,30.449 52.875,33.582 ZM37.460,27.166 L20.671,27.166 C19.577,27.166 18.691,26.279 18.691,25.185 L18.691,17.887 C18.691,15.852 19.988,14.052 21.930,13.404 C21.930,13.404 24.840,12.917 24.885,12.917 C25.079,12.917 25.259,13.037 25.328,13.228 L28.524,21.999 C28.709,22.505 29.424,22.505 29.608,21.999 L32.804,13.228 C32.890,12.991 33.147,12.864 33.386,12.938 L36.203,13.405 L36.212,13.407 C38.138,14.039 39.440,15.836 39.440,17.863 L39.440,25.185 C39.440,26.279 38.553,27.166 37.460,27.166 ZM27.838,13.022 C27.961,12.888 28.140,12.820 28.322,12.820 L29.678,12.820 C29.859,12.820 30.039,12.888 30.162,13.022 C30.352,13.230 30.380,13.529 30.245,13.763 L29.520,14.856 L29.859,17.718 L29.191,19.496 C29.126,19.674 28.874,19.674 28.808,19.496 L28.140,17.718 L28.480,14.856 L27.755,13.763 C27.620,13.529 27.648,13.230 27.838,13.022 ZM29.066,10.827 C26.130,10.827 23.741,8.437 23.741,5.500 C23.741,2.563 26.130,0.174 29.066,0.174 C32.003,0.174 34.392,2.563 34.392,5.500 C34.392,8.437 32.003,10.827 29.066,10.827 ZM20.805,46.018 L20.805,54.465 C20.805,55.216 20.196,55.826 19.444,55.826 L2.166,55.826 C1.414,55.826 0.805,55.216 0.805,54.465 L0.805,46.018 C0.805,43.592 2.351,41.446 4.652,40.679 C4.663,40.676 6.208,40.202 6.208,40.202 C6.666,40.061 7.164,40.172 7.519,40.493 L10.805,43.465 L14.091,40.493 C14.446,40.172 14.944,40.061 15.403,40.202 L16.927,40.669 C16.937,40.673 16.948,40.676 16.958,40.679 C19.259,41.446 20.805,43.592 20.805,46.018 ZM10.805,39.263 C7.673,39.263 5.125,36.714 5.125,33.581 C5.125,30.448 7.673,27.900 10.805,27.900 C13.937,27.900 16.485,30.448 16.485,33.581 C16.485,36.714 13.937,39.263 10.805,39.263 ZM9.384,18.599 C9.849,18.459 10.373,18.554 10.765,18.898 C11.370,19.430 11.429,20.351 10.898,20.956 L8.905,23.224 C8.629,23.539 8.229,23.720 7.810,23.720 C7.391,23.720 6.992,23.539 6.715,23.224 L4.722,20.956 C4.191,20.351 4.250,19.430 4.855,18.898 C5.306,18.501 5.933,18.434 6.444,18.677 C6.741,15.492 7.981,12.504 10.037,10.164 C10.568,9.560 11.489,9.500 12.094,10.032 C12.699,10.563 12.758,11.485 12.227,12.089 C10.654,13.879 9.678,16.154 9.384,18.599 Z"/>
</svg>