<?xml version="1.0" encoding="utf-8"?>
<!-- Generator: Adobe Illustrator 22.0.0, SVG Export Plug-In . SVG Version: 6.00 Build 0)  -->
<svg version="1.1" id="Layer_2_1_" xmlns="http://www.w3.org/2000/svg" xmlns:xlink="http://www.w3.org/1999/xlink" x="0px" y="0px"
	 viewBox="0 0 567.5 522.3" style="enable-background:new 0 0 567.5 522.3;" xml:space="preserve">
<style type="text/css">
	.st0{fill:#686C6E;}
	.st1{fill:#5B5B5B;}
	.st2{fill:#F7A939;}
	.st3{fill:#858789;}
	.st4{fill:#FFFFFF;}
	.st5{enable-background:new    ;}
</style>
<path class="st0" d="M567.5,287.6c-94.2,15.7-188.9,23.5-283.8,23.5S94.2,303.3,0,287.6c10.5-17.5,20.9-35.2,31.5-53
	c-10.6-20.9-21-42-31.5-63c94.2,15.7,188.9,23.5,283.8,23.5s189.6-7.8,283.8-23.5c-10.5,21.1-20.9,42.1-31.5,62.9
	C546.6,252.3,557.1,269.9,567.5,287.6z"/>
<path class="st1" d="M512.7,255c-152.1,20.3-305.6,20.3-457.7,0c15.8,15.8,31.5,31.2,47.3,46.5c120.8,12.9,242.4,12.9,363.3,0
	C481.2,286.2,496.9,270.6,512.7,255z"/>
<polygon class="st1" points="121.1,68.2 121.1,454.2 283.8,499.6 446.5,454.2 446.5,68.2 283.8,22.8 "/>
<path class="st2" d="M113.7,459.7V62.6l170-47.4l170,47.4v397.1l-170,47.4L113.7,459.7L113.7,459.7z M283.8,0L283.8,0L99.2,51.5
	v234.7v184.6l184.6,51.5l184.6-51.5V51.5L283.8,0z"/>
<path class="st3" d="M512.7,255.6C360.6,276,207,278.3,54.9,258V142c152.1,20.3,305.7,18,457.8-2.3V255.6z"/>
<path class="st4" d="M130.9,250.8c7,0.6,14,1.2,21.1,1.8c0-10.6,0-21.1,0-31.7c0-10.6,0-21.1,0-31.7c6.5,0.5,13,0.9,19.5,1.4
	c0-5.2,0-10.4,0-15.6c-20-1.4-40-3.1-60-5.1c0,5.2,0,10.4,0,15.6c6.5,0.7,13,1.3,19.4,1.9c0,10.6,0,21.1,0,31.7
	C130.9,229.7,130.9,240.2,130.9,250.8L130.9,250.8z M167.3,214.2c0-12.7,3.4-22.6,10-29.3s16.5-10,29.6-9.5
	c13,0.5,22.9,4.6,29.5,11.8s10.1,17.5,10.1,30.1s-3.5,22.7-10.1,29.6c-6.6,6.9-16.6,10.6-29.5,10.1s-22.8-5-29.5-12.4
	C170.8,237.2,167.3,226.7,167.3,214.2L167.3,214.2z M189.1,215.4c0,6.5,1.3,12.9,4.1,17.7c2.9,4.8,7.3,8.1,13.8,8.4
	c6.4,0.3,10.9-2.7,13.7-7.3c2.9-4.6,4.2-10.9,4.2-17.4c0-6.8-1.3-13.2-4.2-17.9s-7.3-7.7-13.7-8s-10.9,2.4-13.8,6.9
	C190.3,202.3,189.1,208.6,189.1,215.4L189.1,215.4z M247.3,256.8c7,0.1,14,0.2,21,0.3c0-4.6,0-9.2,0-13.8s0-9.2,0-13.8
	c2.7,0,5.4,0,8.2,0c9.8,0,17.7-2.4,23-6.8c5.3-4.4,8.3-10.8,8.3-18.8c0-8.9-2.9-15.3-8.7-19.5c-5.8-4.2-14.7-6.2-26.7-6.3
	c-8.4,0-16.8-0.2-25.1-0.3c0,13.2,0,26.3,0,39.5C247.3,230.5,247.3,243.7,247.3,256.8L247.3,256.8z M268.3,193.1c1.8,0,3.6,0,5.4,0
	c7.2,0,13,2.6,13,10.6c0,8.3-5.8,10.9-13,10.9c-1.8,0-3.7,0-5.4,0c0-3.6,0-7.2,0-10.7C268.3,200.2,268.3,196.6,268.3,193.1
	L268.3,193.1z M366.6,255.5c7-0.3,14-0.7,21-1c0-13.2,0-26.3,0-39.5s0-26.3,0-39.5c-6.2,0.3-12.4,0.6-18.5,0.9
	c-9,6.2-17.9,12.3-26.8,18.4c3.1,4.7,6.2,9.3,9.4,14c5-3.7,10-7.5,15-11.2c0,9.7,0,19.3,0,29S366.6,245.8,366.6,255.5L366.6,255.5z
	 M424.1,253.1c13.1-1.1,20.7-7,25.1-15.1s5.6-18.4,5.6-28.7c0-10.2-1.2-20.3-5.6-27.5s-12.1-11.5-25.1-10.4
	c-13.1,1.1-20.8,6.7-25.2,14.6c-4.4,7.9-5.5,18.2-5.5,28.4s1.1,20.4,5.5,27.8C403.3,249.6,411,254.2,424.1,253.1L424.1,253.1z
	 M424.1,238.9c-4.8,0.4-7.3-2.9-8.7-7.9c-1.4-5-1.6-11.6-1.6-17.9c0-6.3,0.2-12.9,1.6-18.1c1.4-5.2,4-8.9,8.7-9.3
	c4.8-0.4,7.3,2.9,8.7,7.8c1.4,4.9,1.6,11.6,1.6,17.9c0,6.3-0.2,13-1.6,18.2C431.4,234.8,428.8,238.5,424.1,238.9z"/>
<path class="st4" d="M186.6,450.1c6.6,2.1,15.3,3.2,22.3,3.2c16.6,0,32.9-5.2,32.9-24.6c0-27-35.3-18.8-35.3-30.9
	c0-6.5,8.4-7,13.4-7c5.7,0,11.5,1.1,16.6,3.4l1.3-15.4c-5-1.7-12.1-2.8-19.3-2.8c-15,0-32.5,4.9-32.5,22.9
	c0,27.2,35.3,18.4,35.3,32.3c0,6-6,7.3-12.3,7.3c-8.2,0-15.4-2.1-20.6-4.9L186.6,450.1z"/>
<polygon class="st4" points="243.6,452 297.4,452 297.4,437.9 263.5,437.9 263.5,421 294.4,421 294.4,406.8 263.5,406.8 
	263.5,391.4 296.2,391.4 296.2,377.3 243.6,377.3 "/>
<path class="st4" d="M297.3,414.7c0,23.8,13.1,38.6,37.5,38.6s37.5-14.9,37.5-38.6c0-24-12.8-38.6-37.5-38.6
	C310.2,376,297.3,390.7,297.3,414.7L297.3,414.7z M317.9,414.7c0-13,4.8-23.9,16.9-23.9s16.9,10.9,16.9,23.9
	c0,12.3-4.8,23.9-16.9,23.9C322.7,438.5,317.9,427,317.9,414.7z"/>
<path class="st4" d="M192.7,331h5.2v-16.7h13.6v-4.6h-13.6V299h14.2v-4.6h-19.4V331L192.7,331z M215,331h5.2v-36.6H215V331L215,331z
	 M225.4,331h5.2v-30h0.1l16.5,30.1h6.7v-36.6h-5.2v29.4h-0.1l-16.1-29.4h-7.1L225.4,331L225.4,331z M258.7,331h10.8
	c12,0,19.5-6.3,19.5-18.6c0-11.3-8.6-18-19.5-18h-10.8V331L258.7,331z M264,299.1h6.1c7.5,0,13.4,5,13.4,13.6c0,9.4-5,13.8-14,13.8
	H264V299.1L264,299.1z M192.7,371.5h9.7c7.4,0,13.9-1.9,13.9-9.7c0-5.1-3.5-8.4-8.5-8.8v-0.1c4.6-1.2,7.5-3.7,7.5-8.7
	c0-6.8-5.2-9.2-12.8-9.2h-9.9v36.5L192.7,371.5L192.7,371.5z M197.9,354.8h3.4c4.5,0,9.5,0.8,9.5,6.4c0,4.9-4.2,5.9-9,5.9h-3.9
	V354.8L197.9,354.8z M197.9,339.2h5.5c3,0,6.8,1.1,6.8,5.4c0,5.4-4.3,5.9-9.4,5.9h-2.9L197.9,339.2L197.9,339.2z M219,371.5h20.5
	v-4.6h-15.2v-12h13.9v-4.6h-13.9v-10.7h15.2V335H219V371.5L219,371.5z M261,335.6c-2.5-0.9-5.4-1.3-7.8-1.3c-6.6,0-11.7,3.5-11.7,10
	c0,11.4,15.7,9.1,15.7,17.3c0,4.3-4.2,6-7.2,6c-2.7,0-5.8-1-7.6-1.8l-0.5,4.9c2.4,0.8,4.9,1.5,7.5,1.5c7.3,0,13.4-3.1,13.4-10.9
	c0-12-15.7-10.4-15.7-17.4c0-3.8,3.5-4.9,6.4-4.9c2.7,0,4.2,0.5,6.9,1.5L261,335.6L261,335.6z M273,371.5v-31.9h-11.4V335h28v4.6
	h-11.4v31.9H273z"/>
<path class="st2" d="M333.3,292.7c22,0,39.8,17.8,39.8,39.8s-17.8,39.8-39.8,39.8s-39.8-17.8-39.8-39.8
	C293.4,310.5,311.3,292.7,333.3,292.7L333.3,292.7z M349,310.9c0.7,1,2.2,1.3,3.2,0.6c1-0.7,1.3-2.2,0.6-3.2
	c-21.5-17.3-43.7-3.1-29,13.2c14.8,16.4,49.7,9.7,32.7-7.6c11.6,22.5-20.5,14-27.6,8C313.7,309.1,329.2,296.2,349,310.9L349,310.9z
	 M320.1,319.4c0.2-1.3-0.6-2.5-1.8-2.7c-1.3-0.2-2.5,0.6-2.7,1.8c-1.1,10.9,1.8,18.8,6.7,23.4c-1,0-2,0.7-2.3,1.7
	c-0.7,4.9-1.3,5.1,0.6,9.6c1.5-2.8,2.6-5.4,3.9-8.4c0.1-0.4,0.1-0.8,0-1.2c9.1,6.1,23,2.5,32-12.8l-3.8,3.9
	C335.7,350.9,316.7,343.4,320.1,319.4L320.1,319.4z M332.7,350.9c0.8-1,0.7-2.4-0.3-3.2c-1-0.8-2.4-0.7-3.2,0.3
	c-1.9,3.4-2.7,4.2-2,8C329.2,354.3,330.7,352.7,332.7,350.9L332.7,350.9z M314.8,315.4c1,0.8,2.5,0.6,3.2-0.4c0.8-1,0.6-2.5-0.4-3.2
	c-15.1-8.9-20.1,13.4-5,15.2C301.6,318.5,307.6,310.3,314.8,315.4L314.8,315.4z M359.3,331c-1.2-0.5-2.5,0.1-3,1.3
	c-0.5,1.2,0.1,2.5,1.3,3c4.1,1.9,8.9,11.8-8.9,8.1C362.1,354.8,371.6,338.1,359.3,331L359.3,331z M316.9,348.5
	c1.3,0,2.4-1.1,2.4-2.5c0-1.3-1.1-2.4-2.5-2.4c-17.6,1.7-3.8,26.6,15.5,20.3c5.7-1.9,5.7-7.1,1.2-10.7c1.1,3.1,3.2,6.6-1.1,8.2
	C319.5,366.1,306.3,349,316.9,348.5z"/>
<g id="Category_1_">
	<g id="PPC_Managment_1_">
		<g class="st5">
			<path class="st4" d="M155,103.5h7.5l10,26.5l9.8-26.5h7.5v31.9h-4.6v-27.6h-0.1l-10.5,27.6h-4.5l-10.5-27.6h-0.1v27.6H155V103.5z
				"/>
			<path class="st4" d="M196.8,113.7c2.1-1.3,4.7-2.2,7.7-2.2c6.7,0,9.4,3.3,9.4,9.6v9.6c0,2.6,0.1,3.9,0.2,4.6h-4v-3h-0.1
				c-1,1.4-3.3,3.6-7.2,3.6c-5,0-8.5-2.2-8.5-7.3c0-5.8,6.4-7.7,10.8-7.7c1.7,0,2.9,0,4.6,0.1c0-4-1.5-6.1-5.8-6.1
				c-2.4,0-5,0.9-6.8,2.4L196.8,113.7z M209.6,124.3c-0.9,0-1.8-0.1-2.7-0.1c-2.3,0-8.1,0.4-8.1,4.5c0,2.5,2.4,3.8,4.3,3.8
				c4.2,0,6.5-2.6,6.5-6.1V124.3z"/>
			<path class="st4" d="M219.3,112.1h4.2v3.7h0.1c1.3-2.6,4.4-4.2,7.6-4.2c6,0,8.7,3.7,8.7,10v13.8h-4.3v-12c0-5.4-1.2-8.1-4.9-8.3
				c-4.9,0-7.1,3.9-7.1,9.6v10.8h-4.3V112.1z"/>
			<path class="st4" d="M246.5,113.7c2.1-1.3,4.7-2.2,7.7-2.2c6.7,0,9.4,3.3,9.4,9.6v9.6c0,2.6,0.1,3.9,0.2,4.6h-4v-3h-0.1
				c-1,1.4-3.3,3.6-7.2,3.6c-5,0-8.5-2.2-8.5-7.3c0-5.8,6.4-7.7,10.8-7.7c1.7,0,2.9,0,4.6,0.1c0-4-1.5-6.1-5.8-6.1
				c-2.4,0-5,0.9-6.8,2.4L246.5,113.7z M259.2,124.3c-0.9,0-1.8-0.1-2.7-0.1c-2.3,0-8.1,0.4-8.1,4.5c0,2.5,2.4,3.8,4.3,3.8
				c4.2,0,6.5-2.6,6.5-6.1V124.3z"/>
			<path class="st4" d="M289.5,134.3c0,7.1-3.7,11.1-12,11.1c-2.5,0-4.6-0.3-8.4-1.6l0.5-4c3.3,1.5,5.2,2.1,8.4,2.1
				c4.5,0,7.2-3.1,7.2-8v-2.3h-0.1c-1.8,2.4-4.8,3.6-7.8,3.6c-6.7,0-9.9-5.4-9.9-11.5c0-6,3.4-12.4,10.4-12.4c4.1,0,6.4,1.5,7.7,4
				h0.1v-3.5h4V134.3z M285.2,124c0-4.8-2.2-9-6.8-9c-4.3,0-6.5,4.7-6.5,8.7c0,4.4,2.5,8.2,6.5,8.2S285.2,128.3,285.2,124z"/>
			<path class="st4" d="M312.8,134.4c-1.6,0.6-3.5,1.5-7.3,1.5c-8.3,0-12-5-12-12.6c0-6.9,4.3-11.8,10.9-11.8
				c7.8,0,10.3,5.7,10.3,13.1H298c0,4.6,3.6,7.8,7.7,7.8c2.8,0,6.1-1.5,7.2-2.3V134.4z M310,121.5c0-3.6-2.1-6.5-5.8-6.5
				c-4.2,0-5.9,3.5-6.3,6.5H310z"/>
			<path class="st4" d="M318.5,112.1h4v3.4h0.1c1.6-2.7,4-3.9,7.4-3.9c2.7,0,5.4,1.4,6.6,4.5c1.6-3.3,5.1-4.5,7.2-4.5
				c5.9,0,8.1,3.8,8.1,8.9v14.9h-4.3v-13.9c0-2.9-0.7-6.5-4.2-6.5c-4.4,0-6.1,4.3-6.1,8.6v11.7H333v-13.9c0-2.9-0.7-6.5-4.2-6.5
				c-4.4,0-6.1,4.3-6.1,8.6v11.7h-4.3V112.1z"/>
			<path class="st4" d="M375.1,134.4c-1.6,0.6-3.5,1.5-7.3,1.5c-8.3,0-12-5-12-12.6c0-6.9,4.3-11.8,10.9-11.8
				c7.8,0,10.3,5.7,10.3,13.1h-16.6c0,4.6,3.6,7.8,7.7,7.8c2.8,0,6.1-1.5,7.2-2.3V134.4z M372.3,121.5c0-3.6-2.1-6.5-5.8-6.5
				c-4.2,0-5.9,3.5-6.3,6.5H372.3z"/>
			<path class="st4" d="M380.8,112.1h4.2v3.7h0.1c1.3-2.6,4.4-4.2,7.6-4.2c6,0,8.7,3.7,8.7,10v13.8h-4.3v-12c0-5.4-1.2-8.1-4.9-8.3
				c-4.9,0-7.1,3.9-7.1,9.6v10.8h-4.3V112.1z"/>
			<path class="st4" d="M419.3,115.5h-6.2v12.7c0,2.7,1.6,4.2,3.6,4.2c1.3,0,2.3-0.4,2.9-0.8v3.7c-1,0.3-2.3,0.6-3.7,0.6
				c-4.4,0-7.2-2.1-7.2-6.8v-13.6h-5.2v-3.5h5.2v-5.4l4.3-1.4v6.8h6.2V115.5z"/>
		</g>
		<g class="st5">
			<path class="st4" d="M206.1,64.9h8.6c6.6,0,11.2,2.1,11.2,8c0,4.4-2.6,6.6-6.6,7.6v0.1c4.3,0.4,7.4,3.2,7.4,7.7
				c0,6.8-5.7,8.5-12.1,8.5h-8.5V64.9z M210.6,78.5h2.5c4.4,0,8.2-0.4,8.2-5.1c0-3.8-3.2-4.7-5.9-4.7h-4.8V78.5z M210.6,93h3.4
				c4.1,0,7.8-0.9,7.8-5.2c0-4.9-4.3-5.6-8.3-5.6h-3V93z"/>
			<path class="st4" d="M249.8,95.8c-1.6,0.6-3.5,1.5-7.3,1.5c-8.3,0-12-5-12-12.6c0-6.9,4.3-11.8,10.9-11.8
				c7.8,0,10.3,5.7,10.3,13.1H235c0,4.6,3.6,7.8,7.7,7.8c2.8,0,6.1-1.5,7.2-2.3V95.8z M247.1,82.9c0-3.6-2.1-6.5-5.8-6.5
				c-4.2,0-5.9,3.5-6.3,6.5H247.1z"/>
			<path class="st4" d="M253.8,92.2c1.7,1.1,4.1,1.6,5.3,1.6c2,0,4.4-0.8,4.4-3.3c0-4.2-10.1-3.9-10.1-10.4c0-4.8,3.6-7.2,8.2-7.2
				c2,0,3.7,0.4,5.3,0.9l-0.4,3.7c-1-0.6-3.5-1.2-4.5-1.2c-2.2,0-4.1,0.9-4.1,2.8c0,4.7,10.1,3.4,10.1,10.8c0,5-4,7.3-8.1,7.3
				c-2.2,0-4.4-0.2-6.4-1.3L253.8,92.2z"/>
			<path class="st4" d="M283.8,77h-6.2v12.7c0,2.7,1.6,4.2,3.6,4.2c1.3,0,2.3-0.4,2.9-0.8v3.7c-1,0.3-2.3,0.6-3.7,0.6
				c-4.4,0-7.2-2.1-7.2-6.8V77h-5.2v-3.5h5.2v-5.4l4.3-1.4v6.8h6.2V77z"/>
			<path class="st4" d="M298.4,64.9h8.4c6.5,0,12,2.3,12,9.5c0,7.1-5.5,9.6-11.3,9.6H303v12.7h-4.6V64.9z M303,80h4.5
				c2.8,0,6.4-1.4,6.4-5.6c0-4-4.2-5.5-7-5.5H303V80z"/>
			<path class="st4" d="M321.9,64.9h8.4c6.5,0,12,2.3,12,9.5c0,7.1-5.5,9.6-11.3,9.6h-4.5v12.7h-4.6V64.9z M326.5,80h4.5
				c2.8,0,6.4-1.4,6.4-5.6c0-4-4.2-5.5-7-5.5h-3.9V80z"/>
			<path class="st4" d="M367.8,70.2c-2-1.2-4.2-1.8-6.6-1.8c-7.3,0-12.2,5.3-12.2,12.5c0,7.5,5.4,12.5,12,12.5
				c2.3,0,5.3-0.6,6.9-1.6l0.3,4.4c-2.4,1-5.4,1.1-7.3,1.1c-10.1,0-16.8-6.5-16.8-16.6c0-9.8,7.1-16.3,16.8-16.3
				c2.5,0,4.9,0.4,7.2,1.4L367.8,70.2z"/>
		</g>
	</g>
</g>
</svg>
